<?xml version="1.0" encoding="utf-8"?>
<!-- Generator: Adobe Illustrator 14.0.0, SVG Export Plug-In . SVG Version: 6.00 Build 43363)  -->
<!DOCTYPE svg PUBLIC "-//W3C//DTD SVG 1.1//EN" "http://www.w3.org/Graphics/SVG/1.1/DTD/svg11.dtd">
<svg version="1.1" id="Layer_1" xmlns="http://www.w3.org/2000/svg" xmlns:xlink="http://www.w3.org/1999/xlink" x="0px" y="0px"
	 width="40px" height="40px" viewBox="0 0 40 40" enable-background="new 0 0 40 40" xml:space="preserve">
<path fill-rule="evenodd" clip-rule="evenodd" fill="#191717" d="M12.018,0C5.381,0,0,5.514,0,12.318
	c0,5.441,3.443,10.057,8.219,11.686c0.601,0.114,0.82-0.268,0.82-0.594c0-0.292-0.01-1.066-0.016-2.094
	c-3.343,0.744-4.048-1.651-4.048-1.651c-0.546-1.423-1.334-1.802-1.334-1.802c-1.091-0.765,0.083-0.749,0.083-0.749
	c1.206,0.087,1.841,1.269,1.841,1.269c1.072,1.883,2.813,1.339,3.498,1.023c0.109-0.796,0.42-1.338,0.763-1.646
	C7.156,17.45,4.35,16.393,4.35,11.673c0-1.344,0.469-2.444,1.237-3.305c-0.124-0.312-0.536-1.564,0.118-3.26
	c0,0,1.009-0.332,3.305,1.263c0.958-0.273,1.986-0.41,3.008-0.415c1.021,0.004,2.049,0.141,3.009,0.415
	c2.294-1.594,3.301-1.263,3.301-1.263c0.656,1.696,0.244,2.948,0.12,3.26c0.77,0.861,1.235,1.96,1.235,3.305
	c0,4.731-2.81,5.772-5.487,6.078c0.433,0.38,0.816,1.131,0.816,2.28c0,1.646-0.015,2.976-0.015,3.379
	c0,0.329,0.217,0.714,0.827,0.593c4.771-1.632,8.211-6.246,8.211-11.685C24.036,5.514,18.655,0,12.018,0z"/>
</svg>
