<?xml version="1.0" encoding="utf-8"?>
<!-- Generator: Adobe Illustrator 14.0.0, SVG Export Plug-In . SVG Version: 6.00 Build 43363)  -->
<!DOCTYPE svg PUBLIC "-//W3C//DTD SVG 1.1//EN" "http://www.w3.org/Graphics/SVG/1.1/DTD/svg11.dtd">
<svg version="1.1" id="Layer_1" xmlns="http://www.w3.org/2000/svg" xmlns:xlink="http://www.w3.org/1999/xlink" x="0px" y="0px"
	 width="40px" height="40px" viewBox="0 0 40 40" enable-background="new 0 0 40 40" xml:space="preserve">
<path fill="#CAB33C" d="M16.433,0.94l1.782,3.214l9.42,5.659l-0.034,10.743l1.752,3.185V10.437l-1.391-2.409L16.433,0.94z"/>
<path fill="#F4D548" d="M16.433,0.94L18.066,0l11.583,7.073l-1.684,0.939L16.433,0.94z"/>
<path fill="#FEE14E" d="M31.035,9.596l-1.386-2.522l-1.684,0.939l1.387,2.424L31.035,9.596z"/>
<path fill="#E5C943" d="M31.035,22.802V9.596l-1.683,0.841v13.305L31.035,22.802z"/>
<path fill="#010101" d="M5.593,11.771h7.252v2.187h-2.431v6.667H8.028v-6.667H5.593V11.771z"/>
<path fill="#010101" d="M13.958,11.771h6.4v1.89h-4.004v1.409h3.717v1.806h-3.717v1.746h4.123v2.003h-6.52V11.771z"/>
<path fill="#010101" d="M21.829,11.771h2.588v8.854h-2.588V11.771z"/>
<path fill="#CAB33C" d="M0,9.893v13.305l1.436,2.473l11.533,7.023l-1.781-3.165l-9.405-5.737V13.058L0,9.893z"/>
<path fill="#FEE14E" d="M1.633,8.953l1.782,3.264l-1.633,0.841L0,9.893L1.633,8.953z"/>
<path fill="#E5C943" d="M3.415,22.9V12.217l-1.633,0.841v10.733L3.415,22.9z"/>
<path fill="#F4D548" d="M12.819,28.539L3.415,22.9l-1.633,0.891l9.405,5.737L12.819,28.539z"/>
<path fill="#FEE14E" d="M14.602,31.705l-1.782-3.166l-1.633,0.989l1.781,3.165L14.602,31.705z"/>
<path fill="#010101" d="M14.022,34.281l0.782-0.445v0.287l-0.263,0.148v0.885l-0.252,0.148V34.42l-0.263,0.148L14.022,34.281z"/>
<path fill="#010101" d="M14.923,33.771l0.679-0.4v0.252l-0.426,0.248v0.188l0.401-0.232v0.242l-0.401,0.223l0.01,0.232l0.436-0.252
	v0.262l-0.698,0.411V33.771z"/>
<path fill="#010101" d="M16.274,32.99l0.277-0.158l-0.262,0.717l0.291,0.436l-0.291,0.168l-0.169-0.281l-0.153,0.465l-0.292,0.168
	l0.292-0.771l-0.272-0.416l0.287-0.158l0.149,0.277L16.274,32.99z"/>
<path fill="#010101" d="M16.597,32.803l0.781-0.455v0.287l-0.257,0.152v0.891l-0.263,0.139v-0.881l-0.262,0.158V32.803z"/>
<path fill="#010101" d="M17.884,32.061l0.678-0.391v0.242l-0.426,0.252v0.184l0.396-0.232v0.242l-0.396,0.232l0.005,0.232
	l0.44-0.262v0.271l-0.697,0.4V32.061z"/>
<path fill="#010101" d="M18.962,31.967v0.643l-0.242,0.139v-1.172l0.242-0.139l0.308,0.475V31.26l0.242-0.139v1.172l-0.242,0.139
	L18.962,31.967z"/>
<path fill="#010101" d="M20.076,30.785c0.104-0.061,0.188-0.08,0.243-0.055c0.063,0.024,0.113,0.094,0.139,0.197l-0.233,0.203
	c0-0.029-0.01-0.05-0.015-0.064c-0.02-0.02-0.039-0.029-0.06-0.035c-0.015,0-0.044,0.006-0.064,0.021
	c-0.054,0.029-0.104,0.089-0.128,0.173c-0.03,0.064-0.04,0.148-0.04,0.252c0,0.129,0.01,0.208,0.04,0.242
	c0.023,0.03,0.074,0.035,0.118,0.006c0.05-0.03,0.084-0.069,0.114-0.124c0.024-0.054,0.034-0.118,0.055-0.198l0.223-0.034
	c-0.021,0.099-0.035,0.183-0.074,0.263c-0.025,0.078-0.064,0.148-0.119,0.207c-0.05,0.055-0.104,0.109-0.178,0.148
	c-0.095,0.055-0.169,0.079-0.224,0.074c-0.054-0.005-0.104-0.039-0.148-0.113c-0.04-0.064-0.064-0.174-0.064-0.322
	c0-0.192,0.035-0.361,0.109-0.51C19.844,30.973,19.947,30.859,20.076,30.785z"/>
<path fill="#010101" d="M21.304,30.235c0.074,0.06,0.113,0.183,0.113,0.376c0,0.134-0.02,0.258-0.044,0.361
	c-0.04,0.108-0.084,0.203-0.144,0.287c-0.064,0.084-0.139,0.152-0.232,0.207c-0.09,0.055-0.164,0.074-0.232,0.069
	c-0.064-0.005-0.109-0.044-0.148-0.114c-0.035-0.068-0.055-0.172-0.055-0.311c0-0.188,0.039-0.356,0.113-0.51
	c0.074-0.148,0.174-0.262,0.307-0.342C21.12,30.182,21.229,30.172,21.304,30.235L21.304,30.235z M21.12,31.052
	c0.025-0.069,0.035-0.169,0.035-0.297c0-0.114-0.01-0.183-0.045-0.218c-0.029-0.035-0.074-0.035-0.129,0
	c-0.049,0.029-0.084,0.079-0.123,0.148c-0.025,0.069-0.045,0.163-0.045,0.282c0,0.118,0.02,0.192,0.045,0.228
	c0.039,0.034,0.074,0.034,0.133,0.005C21.046,31.17,21.081,31.121,21.12,31.052"/>
<path fill="#010101" d="M22.304,29.875c0.01,0.064,0.015,0.138,0.015,0.217c0,0.124-0.005,0.228-0.024,0.307
	c-0.02,0.084-0.05,0.158-0.084,0.223c-0.04,0.069-0.074,0.124-0.114,0.164c-0.055,0.049-0.108,0.094-0.158,0.118l-0.372,0.218
	l-0.01-1.172l0.382-0.219c0.074-0.044,0.144-0.064,0.179-0.064c0.044,0.006,0.094,0.025,0.118,0.061
	C22.265,29.761,22.284,29.811,22.304,29.875L22.304,29.875z M22.041,30.463c0.021-0.049,0.021-0.119,0.021-0.213
	c0-0.129-0.01-0.203-0.04-0.232c-0.024-0.029-0.074-0.024-0.139,0.01l-0.064,0.04v0.644l0.064-0.04
	c0.044-0.03,0.084-0.06,0.114-0.089C22.012,30.553,22.031,30.513,22.041,30.463"/>
<path fill="#010101" d="M22.461,29.42l0.251-0.149l0.01,1.171l-0.261,0.149V29.42z"/>
<path fill="#010101" d="M23.14,29.549l0.01,0.651l-0.242,0.14l-0.009-1.182l0.241-0.129l0.316,0.465l-0.009-0.651l0.241-0.14
	l0.01,1.182l-0.242,0.129L23.14,29.549z"/>
<path fill="#010101" d="M24.284,28.355c0.094-0.054,0.158-0.078,0.202-0.084c0.05,0,0.085,0.016,0.114,0.045
	c0.039,0.029,0.055,0.084,0.074,0.148l-0.252,0.203c-0.011-0.035-0.025-0.06-0.045-0.069c-0.03-0.011-0.055,0-0.094,0.02
	c-0.055,0.03-0.104,0.084-0.139,0.158c-0.03,0.074-0.045,0.173-0.045,0.292c0,0.129,0.015,0.207,0.045,0.242
	c0.034,0.035,0.084,0.035,0.148,0c0.029-0.015,0.054-0.039,0.074-0.064c0.029-0.024,0.055-0.064,0.094-0.108v-0.114l-0.178,0.1
	v-0.242l0.4-0.229v0.5c-0.074,0.113-0.139,0.203-0.198,0.262c-0.063,0.06-0.128,0.114-0.213,0.158
	c-0.094,0.06-0.173,0.08-0.232,0.07c-0.064-0.016-0.108-0.055-0.148-0.129c-0.034-0.074-0.044-0.174-0.044-0.297
	c-0.011-0.124,0.01-0.248,0.044-0.361c0.04-0.119,0.094-0.223,0.168-0.312C24.115,28.475,24.189,28.41,24.284,28.355L24.284,28.355z
	"/>
<path fill="#010101" d="M25.224,27.822l0.253-0.148l0.01,1.177l-0.263,0.139V27.822z"/>
<path fill="#010101" d="M25.912,27.961v0.643l-0.243,0.139l-0.01-1.172l0.243-0.139l0.316,0.465v-0.644l0.243-0.138v1.172
	l-0.243,0.139L25.912,27.961z"/>
<path fill="#010101" d="M26.64,27.001l0.252-0.139l0.01,1.173l-0.262,0.148V27.001z"/>
<path fill="#010101" d="M27.021,26.788l0.782-0.455v0.297l-0.263,0.148v0.886l-0.257,0.148v-0.886l-0.263,0.148V26.788z"/>
<path fill="#010101" d="M27.922,26.269l0.263-0.148v1.167l-0.253,0.154L27.922,26.269z"/>
<path fill="#010101" d="M29.124,25.571l0.783-0.45v0.292l-0.264,0.148v0.88l-0.252,0.148v-0.88l-0.268,0.148V25.571z"/>
<path fill="#010101" d="M28.882,25.725l0.316,0.989l-0.271,0.158l-0.035-0.173l-0.297,0.168l-0.039,0.218l-0.263,0.153l0.312-1.355
	L28.882,25.725z M28.649,26.58l0.188-0.104l-0.094-0.366L28.649,26.58"/>
<path fill="#010101" d="M30.035,25.047l0.253-0.148l0.01,1.172l-0.263,0.148V25.047z"/>
<path fill="#010101" d="M30.704,25.828l-0.312-0.984l0.268-0.158l0.197,0.737l0.174-0.95l0.262-0.147l-0.307,1.345L30.704,25.828z"
	/>
<path fill="#010101" d="M31.377,24.275l0.688-0.4v0.252l-0.431,0.252v0.188l0.391-0.232v0.237L31.634,24.8v0.232l0.441-0.252v0.267
	l-0.698,0.4V24.275z"/>
</svg>
